<svg width="512" height="512" viewBox="0 0 512 512" fill="none" xmlns="http://www.w3.org/2000/svg">
<path d="M256 487C194.297 487 136.289 463.018 92.6579 419.474C49.0284 375.928 25 318.033 25 256.45V255.55C25 193.967 49.0284 136.072 92.6579 92.526C136.289 48.9816 194.297 25 256 25C317.703 25 375.711 48.9816 419.342 92.526C462.972 136.072 487 193.967 487 255.55V256.45C487 318.033 462.972 375.928 419.342 419.474C375.711 463.018 317.703 487 256 487ZM256 61.0234C148.528 61.0234 61.0937 148.287 61.0937 255.55V256.45C61.0937 363.713 148.528 450.977 256 450.977C363.472 450.977 450.906 363.713 450.906 256.45V255.55C450.906 148.287 363.472 61.0234 256 61.0234ZM242.465 364.52H134.183V146.579H242.465V364.52ZM170.277 328.497H206.371V182.602H170.277V328.497ZM376.914 364.52H268.633V146.579H376.914V364.52V364.52ZM304.727 328.497H340.821V182.602H304.727V328.497Z" fill="url(#paint0_linear)"/>
<defs>
<linearGradient id="paint0_linear" x1="256.011" y1="24.9772" x2="256.011" y2="487" gradientUnits="userSpaceOnUse">
<stop stop-color="#2AF598"/>
<stop offset="1" stop-color="#009EFD"/>
</linearGradient>
</defs>
</svg>
